<svg width="369" height="326" viewBox="0 0 369 326" fill="none" xmlns="http://www.w3.org/2000/svg">
<rect x="0.5" y="26.5" width="368" height="299" rx="29.5" fill="black" stroke="white"/>
<circle cx="62" cy="26" r="25.5" fill="white" stroke="white"/>
<path d="M57.071 27.496C57.7397 27.6927 58.251 28.0663 58.605 28.617C58.9983 29.1283 59.195 29.7577 59.195 30.505C59.195 31.449 58.9 32.216 58.31 32.806C57.72 33.396 56.9923 33.691 56.127 33.691C55.183 33.691 54.416 33.396 53.826 32.806C53.2753 32.1767 53 31.4097 53 30.505C53 30.033 53.0393 29.5807 53.118 29.148C53.236 28.676 53.4523 28.0073 53.767 27.142L56.245 19H59.077L57.071 27.496ZM67.101 27.496C67.7697 27.6927 68.281 28.0663 68.635 28.617C69.0283 29.1283 69.225 29.7577 69.225 30.505C69.225 31.449 68.93 32.216 68.34 32.806C67.75 33.396 67.0223 33.691 66.157 33.691C65.213 33.691 64.446 33.396 63.856 32.806C63.3053 32.1767 63.03 31.4097 63.03 30.505C63.03 30.033 63.0693 29.5807 63.148 29.148C63.266 28.676 63.4823 28.0073 63.797 27.142L66.275 19H69.107L67.101 27.496Z" fill="black"/>
</svg>
