<svg width="116" height="116" viewBox="0 0 116 116" fill="none" xmlns="http://www.w3.org/2000/svg">
<circle cx="58" cy="57.9233" r="50" fill="#FFFB20" stroke="black" stroke-width="15"/>
<path d="M54.9984 63.3633C54.9984 62.0513 55.2864 60.8353 55.8624 59.7153C56.4384 58.5953 57.1424 57.6353 57.9744 56.8353C58.8064 56.0033 59.6384 55.2193 60.4704 54.4833C61.3024 53.7153 62.0064 52.8993 62.5824 52.0353C63.1584 51.1393 63.4464 50.2113 63.4464 49.2513C63.4464 47.9073 62.9824 46.8833 62.0544 46.1793C61.1264 45.4433 59.8784 45.0753 58.3104 45.0753C56.8064 45.0753 55.5104 45.4593 54.4224 46.2273C53.3344 46.9953 52.5504 48.0833 52.0704 49.4913L47.3184 46.8033C48.2144 44.5313 49.6544 42.7873 51.6384 41.5713C53.6544 40.3233 55.9264 39.6993 58.4544 39.6993C61.3024 39.6993 63.7664 40.5153 65.8464 42.1473C67.9264 43.7793 68.9664 46.0353 68.9664 48.9153C68.9664 50.2593 68.6784 51.5233 68.1024 52.7073C67.5264 53.8593 66.8224 54.8513 65.9904 55.6833C65.1584 56.5153 64.3264 57.3313 63.4944 58.1313C62.6624 58.8993 61.9584 59.7313 61.3824 60.6273C60.8064 61.5233 60.5184 62.4353 60.5184 63.3633H54.9984ZM60.3264 73.4433C59.6224 74.1473 58.7744 74.4993 57.7824 74.4993C56.7904 74.4993 55.9424 74.1473 55.2384 73.4433C54.5344 72.7393 54.1824 71.8913 54.1824 70.8993C54.1824 69.9073 54.5184 69.0593 55.1904 68.3553C55.8944 67.6513 56.7584 67.2993 57.7824 67.2993C58.7744 67.2993 59.6224 67.6513 60.3264 68.3553C61.0304 69.0593 61.3824 69.9073 61.3824 70.8993C61.3824 71.8913 61.0304 72.7393 60.3264 73.4433Z" fill="black"/>
</svg>
